<svg xmlns="http://www.w3.org/2000/svg" viewBox="0 0 710 370" width="710" height="370" role="img" aria-label="Array of structs where each record spans a cache line and only a small price field is read, compared with a hot/cold split where prices are contiguous and four fit per line">
<!--
  figure: fig-a5-1
  purpose: Show that scanning one field of a large struct wastes most of every fetched line, and that splitting makes the scan contiguous.
  critical distinction: The saving is in lines touched, not in bytes read by the program.
  forbidden implication: Must not imply struct-of-arrays is universally better, nor that whole-record access is unaffected.
  generated by build/figures.py — edit there, not here
-->
<defs><marker id="aI" markerWidth="9" markerHeight="9" refX="8" refY="3" orient="auto"><path d="M0,0 L8,3 L0,6 z" fill="#1f2328"/></marker><marker id="aA" markerWidth="9" markerHeight="9" refX="8" refY="3" orient="auto"><path d="M0,0 L8,3 L0,6 z" fill="#1a6fb5"/></marker><marker id="aW" markerWidth="9" markerHeight="9" refX="8" refY="3" orient="auto"><path d="M0,0 L8,3 L0,6 z" fill="#b5501a"/></marker><marker id="aO" markerWidth="9" markerHeight="9" refX="8" refY="3" orient="auto"><path d="M0,0 L8,3 L0,6 z" fill="#2f7a4f"/></marker><marker id="aM" markerWidth="9" markerHeight="9" refX="8" refY="3" orient="auto"><path d="M0,0 L8,3 L0,6 z" fill="#6b7280"/></marker></defs>
<rect width="710" height="370" fill="#ffffff"/>
<g font-family="system-ui,-apple-system,'Segoe UI',Roboto,Helvetica,Arial,sans-serif">
  <text x="12" y="22" font-size="14" fill="#1f2328" text-anchor="start" font-weight="600">The unit of cost is the line, not the field.</text>
  <text x="12" y="50" font-size="13" fill="#1f2328" text-anchor="start">Array of structs — scan reads one field of each</text>
  <rect x="12" y="60" width="128" height="44" rx="2" fill="#f3f4f6" stroke="#9aa4b2" stroke-width="1.2"/>
  <rect x="14" y="62" width="26" height="40" rx="2" fill="#dbeafe" stroke="#1a6fb5" stroke-width="1.5"/>
  <text x="27" y="86" font-size="11" fill="#1a6fb5" text-anchor="middle">pri</text>
  <text x="92" y="86" font-size="11" fill="#6b7280" text-anchor="middle">other fields</text>
  
  <rect x="146" y="60" width="128" height="44" rx="2" fill="#f3f4f6" stroke="#9aa4b2" stroke-width="1.2"/>
  <rect x="148" y="62" width="26" height="40" rx="2" fill="#dbeafe" stroke="#1a6fb5" stroke-width="1.5"/>
  <text x="161" y="86" font-size="11" fill="#1a6fb5" text-anchor="middle">pri</text>
  <text x="226" y="86" font-size="11" fill="#6b7280" text-anchor="middle">other fields</text>
  <line x1="146" y1="60" x2="146" y2="104" stroke="#b5501a" stroke-width="2"/>
  <rect x="280" y="60" width="128" height="44" rx="2" fill="#f3f4f6" stroke="#9aa4b2" stroke-width="1.2"/>
  <rect x="282" y="62" width="26" height="40" rx="2" fill="#dbeafe" stroke="#1a6fb5" stroke-width="1.5"/>
  <text x="295" y="86" font-size="11" fill="#1a6fb5" text-anchor="middle">pri</text>
  <text x="360" y="86" font-size="11" fill="#6b7280" text-anchor="middle">other fields</text>
  <line x1="280" y1="60" x2="280" y2="104" stroke="#b5501a" stroke-width="2"/>
  <rect x="414" y="60" width="128" height="44" rx="2" fill="#f3f4f6" stroke="#9aa4b2" stroke-width="1.2"/>
  <rect x="416" y="62" width="26" height="40" rx="2" fill="#dbeafe" stroke="#1a6fb5" stroke-width="1.5"/>
  <text x="429" y="86" font-size="11" fill="#1a6fb5" text-anchor="middle">pri</text>
  <text x="494" y="86" font-size="11" fill="#6b7280" text-anchor="middle">other fields</text>
  <line x1="414" y1="60" x2="414" y2="104" stroke="#b5501a" stroke-width="2"/>
  <rect x="548" y="60" width="128" height="44" rx="2" fill="#f3f4f6" stroke="#9aa4b2" stroke-width="1.2"/>
  <rect x="550" y="62" width="26" height="40" rx="2" fill="#dbeafe" stroke="#1a6fb5" stroke-width="1.5"/>
  <text x="563" y="86" font-size="11" fill="#1a6fb5" text-anchor="middle">pri</text>
  <text x="628" y="86" font-size="11" fill="#6b7280" text-anchor="middle">other fields</text>
  <line x1="548" y1="60" x2="548" y2="104" stroke="#b5501a" stroke-width="2"/>
  <text x="12" y="124" font-size="11" fill="#b5501a" text-anchor="start">one cache line fetched per order; 8 useful bytes of 64 used</text>
  <rect x="12" y="132" width="660" height="10" rx="2" fill="#fde8d7" stroke="#b5501a" stroke-width="1.5"/>
  <text x="342" y="166" font-size="11" fill="#b5501a" text-anchor="middle">2,000 orders -&gt; 2,000 lines -&gt; 128 KB moved to deliver 16 KB</text>
  <line x1="12" y1="190" x2="698" y2="190" stroke="#9aa4b2" stroke-width="1"/>
  <text x="12" y="214" font-size="13" fill="#1f2328" text-anchor="start">Hot / cold split — scanned fields together</text>
  <rect x="12" y="224" width="32" height="40" rx="2" fill="#dbeafe" stroke="#1a6fb5" stroke-width="1.5"/>
  <text x="28" y="248" font-size="11" fill="#1a6fb5" text-anchor="middle">pri</text>
  <rect x="46" y="224" width="32" height="40" rx="2" fill="#dbeafe" stroke="#1a6fb5" stroke-width="1.5"/>
  <text x="62" y="248" font-size="11" fill="#1a6fb5" text-anchor="middle">pri</text>
  <rect x="80" y="224" width="32" height="40" rx="2" fill="#dbeafe" stroke="#1a6fb5" stroke-width="1.5"/>
  <text x="96" y="248" font-size="11" fill="#1a6fb5" text-anchor="middle">pri</text>
  <rect x="114" y="224" width="32" height="40" rx="2" fill="#dbeafe" stroke="#1a6fb5" stroke-width="1.5"/>
  <text x="130" y="248" font-size="11" fill="#1a6fb5" text-anchor="middle">pri</text>
  <rect x="148" y="224" width="32" height="40" rx="2" fill="#dbeafe" stroke="#1a6fb5" stroke-width="1.5"/>
  <text x="164" y="248" font-size="11" fill="#1a6fb5" text-anchor="middle">pri</text>
  <text x="192" y="248" font-size="11" fill="#6b7280" text-anchor="start">... contiguous prices, 4 per line</text>
  <rect x="12" y="272" width="170" height="10" rx="2" fill="#dbeafe" stroke="#1a6fb5" stroke-width="1.5"/>
  <text x="12" y="300" font-size="11" fill="#6b7280" text-anchor="start">one line now carries four orders' prices; the prefetcher sees a clean stride</text>
  <text x="420" y="214" font-size="13" fill="#1f2328" text-anchor="start">cold record, reached by index</text>
  <rect x="420" y="224" width="84" height="40" rx="2" fill="#f3f4f6" stroke="#9aa4b2" stroke-width="1.2"/>
  <text x="462" y="248" font-size="11" fill="#6b7280" text-anchor="middle">cold 0</text>
  <rect x="508" y="224" width="84" height="40" rx="2" fill="#f3f4f6" stroke="#9aa4b2" stroke-width="1.2"/>
  <text x="550" y="248" font-size="11" fill="#6b7280" text-anchor="middle">cold 1</text>
  <rect x="596" y="224" width="84" height="40" rx="2" fill="#f3f4f6" stroke="#9aa4b2" stroke-width="1.2"/>
  <text x="638" y="248" font-size="11" fill="#6b7280" text-anchor="middle">cold 2</text>
  <text x="420" y="300" font-size="11" fill="#6b7280" text-anchor="start">touched only when acting on one specific order</text>
  <line x1="12" y1="318" x2="698" y2="318" stroke="#9aa4b2" stroke-width="1"/>
  <text x="12" y="336" font-size="11" fill="#6b7280" text-anchor="start">Struct-of-arrays is not a better layout, it is a different one: it trades scan cost against whole-record cost.</text>
  <text x="12" y="352" font-size="11" fill="#6b7280" text-anchor="start">Group together what is accessed together.</text>
</g>
</svg>
